# xmcd
#
# Track frame offsets:
#	150
#	24065
#	52595
#	72182
#	92280
#	108790
#	135522
#	164950
#	195362
#	221650
#
# Disc length: 3473 seconds
#
# Revision: 2
# Processed by: cddbd v1.5.2PL0 Copyright (c) Steve Scherf et al.
# Submitted via: EZCDAudioConverter 4.0.4.2
#
DISCID=750d8f0a
DTITLE=Mick Taylor - A Stones' Throw
DYEAR=2000
DGENRE=Blues
TTITLE0=Secret Affair
TTITLE1=Twisted Sister
TTITLE2=Never Fall In Love Again
TTITLE3=Losing My Faith
TTITLE4=Morning Comes
TTITLE5=Lost In The Desert
TTITLE6=Blues In The Morning
TTITLE7=Late At Night
TTITLE8=Here Comes The Rain
TTITLE9=Blind Willie Mc Tell
EXTD=
EXTT0=
EXTT1=
EXTT2=
EXTT3=
EXTT4=
EXTT5=
EXTT6=
EXTT7=
EXTT8=
EXTT9=
PLAYORDER=
